<?xml version="1.0" encoding="UTF-8"?>
<svg width="64px" height="62px" viewBox="0 0 64 62" version="1.1" xmlns="http://www.w3.org/2000/svg" xmlns:xlink="http://www.w3.org/1999/xlink">
    <!-- Generator: Sketch 54.1 (76490) - https://sketchapp.com -->
    <title>Shape</title>
    <desc>Created with Sketch.</desc>
    <g id="icons" stroke="none" stroke-width="1" fill="none" fill-rule="evenodd">
        <g id="icon-emoji" transform="translate(0.000000, -1.000000)" fill="#46C6A3" fill-rule="nonzero">
            <g id="Smile-Beam" transform="translate(0.000000, 1.000000)">
                <path d="M21.4116593,24.6748736 C22.9792986,24.6748736 24.4449777,25.6623687 25.4263454,27.3748603 L26.6371238,29.4998498 C26.9047695,29.9623476 27.427316,30.087347 27.822412,29.9623476 C28.2812333,29.8248482 28.5871142,29.3998503 28.5488791,28.9248527 C28.1282929,23.6623786 24.4449777,19.9998966 21.4116593,19.9998966 C18.3783409,19.9998966 14.6950257,23.6623786 14.2744395,28.9248527 C14.2362044,29.3873504 14.5420853,29.8248482 15.0009065,29.9623476 C15.4342377,30.0998469 15.9440392,29.8998479 16.1861948,29.4998498 L17.3969732,27.3748603 C18.3783409,25.6498688 19.84402,24.6748736 21.4116593,24.6748736 Z M31.6076875,-4.92307709e-06 C14.1469892,-4.92307709e-06 0,13.8749268 0,30.9998425 C0,48.1247582 14.1469892,61.9996898 31.6076875,61.9996898 C49.0683859,61.9996898 63.2153751,48.1247582 63.2153751,30.9998425 C63.2153751,13.8749268 49.0683859,-4.92307709e-06 31.6076875,-4.92307709e-06 Z M31.6076875,57.9997095 C16.4283505,57.9997095 4.07841129,45.8872692 4.07841129,30.9998425 C4.07841129,16.1124158 16.4283505,3.99997538 31.6076875,3.99997538 C46.7870246,3.99997538 59.1369638,16.1124158 59.1369638,30.9998425 C59.1369638,45.8872692 46.7870246,57.9997095 31.6076875,57.9997095 Z M41.8037158,19.9998966 C38.7703974,19.9998966 35.0870822,23.6623786 34.666496,28.9248527 C34.6282609,29.3873504 34.9341417,29.8248482 35.392963,29.9623476 C35.8262942,30.0998469 36.3360956,29.8998479 36.5782513,29.4998498 L37.7890296,27.3748603 C38.7703974,25.6623687 40.2360764,24.6748736 41.8037158,24.6748736 C43.3713551,24.6748736 44.8370342,25.6623687 45.8184019,27.3748603 L47.0291802,29.4998498 C47.296826,29.9623476 47.8193724,30.087347 48.2144685,29.9623476 C48.6732898,29.8248482 48.9791706,29.3998503 48.9409355,28.9248527 C48.5203494,23.6623786 44.8370342,19.9998966 41.8037158,19.9998966 Z M43.1037094,39.7247995 C40.2488215,43.074783 36.0557048,44.9997735 31.6076875,44.9997735 C27.1596702,44.9997735 22.9665536,43.074783 20.1116657,39.7247995 C19.3851987,38.8748037 18.0979501,38.7623042 17.2440328,39.4748007 C16.3773704,40.1872972 16.262665,41.4372911 16.989132,42.2872869 C20.6087221,46.5497659 25.9488919,48.9997538 31.6076875,48.9997538 C37.2664832,48.9997538 42.606653,46.5497659 46.238988,42.274787 C46.9654551,41.4247911 46.8507497,40.1622974 45.9840873,39.4623008 C45.1046799,38.7623042 43.8301764,38.8748037 43.1037094,39.7247995 Z" id="Shape"></path>
            </g>
        </g>
    </g>
</svg>